<svg width="20" height="18" viewBox="0 0 20 18" fill="none" xmlns="http://www.w3.org/2000/svg">
<path d="M9.24485 2.65556L10 3.52542L10.7551 2.65556C11.0315 2.33725 11.3563 2.05623 11.7185 1.81996C12.5211 1.29647 13.496 1 14.5 1C17.046 1 19 2.94419 19 5.3951C19 6.30517 18.784 7.18464 18.3948 8.04632L18.3946 8.04663C17.1522 10.7994 14.2569 13.1897 11.5222 15.4215L11.5122 15.4297C10.9937 15.8529 10.4823 16.2703 10 16.6784C9.51775 16.2703 9.00634 15.8529 8.48781 15.4297L8.47778 15.4215C5.74306 13.1897 2.84765 10.7993 1.6053 8.04649L1.60516 8.04618C1.21595 7.18455 1 6.30512 1 5.3951C1 2.94419 2.95404 1 5.5 1C6.50405 1 7.47894 1.29647 8.28147 1.81996C8.64367 2.05623 8.96853 2.33725 9.24485 2.65556Z" stroke="#392B4B" stroke-width="2" stroke-linecap="round"/>
</svg>
