<svg width="42" height="38" viewBox="0 0 42 38" fill="none" xmlns="http://www.w3.org/2000/svg">
<path d="M27.4925 20.1244C29.2082 18.9031 30.4605 17.2284 31.0752 15.3331C31.6898 13.4379 31.6364 11.4165 30.9221 9.55006C30.2079 7.68363 28.8684 6.06503 27.0901 4.91943C25.3118 3.77383 23.183 3.1582 21 3.1582C18.817 3.1582 16.6882 3.77383 14.9099 4.91943C13.1315 6.06503 11.7921 7.68363 11.0779 9.55006C10.3636 11.4165 10.3101 13.4379 10.9248 15.3331C11.5395 17.2284 12.7918 18.9031 14.5075 20.1244C11.5676 21.1901 9.0025 22.9575 7.08556 25.2384C5.16862 27.5193 3.97173 30.2281 3.62249 33.0761C3.59721 33.284 3.61745 33.4944 3.68204 33.6952C3.74663 33.8961 3.85431 34.0835 3.99894 34.2467C4.29103 34.5763 4.71587 34.7874 5.17999 34.8336C5.64412 34.8798 6.10952 34.7572 6.47381 34.493C6.8381 34.2287 7.07144 33.8443 7.12249 33.4244C7.50677 30.3293 9.13795 27.4708 11.7044 25.395C14.2708 23.3192 17.5926 22.1717 21.035 22.1717C24.4774 22.1717 27.7992 23.3192 30.3656 25.395C32.932 27.4708 34.5632 30.3293 34.9475 33.4244C34.9951 33.8135 35.2003 34.1728 35.5234 34.433C35.8466 34.6932 36.2649 34.8359 36.6975 34.8336H36.89C37.3487 34.7858 37.768 34.576 38.0565 34.2497C38.3449 33.9235 38.4792 33.5073 38.43 33.0919C38.0791 30.2359 36.8758 27.5201 34.949 25.2357C33.0222 22.9513 30.4446 21.1844 27.4925 20.1244ZM21 19.0002C19.6155 19.0002 18.2621 18.6288 17.111 17.9329C15.9599 17.237 15.0627 16.2478 14.5328 15.0906C14.003 13.9333 13.8644 12.6599 14.1345 11.4313C14.4046 10.2028 15.0713 9.07429 16.0502 8.18856C17.0292 7.30283 18.2765 6.69964 19.6344 6.45527C20.9922 6.21089 22.3997 6.33631 23.6788 6.81567C24.9579 7.29502 26.0511 8.10678 26.8203 9.14829C27.5895 10.1898 28 11.4143 28 12.6669C28 14.3466 27.2625 15.9575 25.9497 17.1452C24.637 18.333 22.8565 19.0002 21 19.0002Z" fill="black"/>
</svg>
