<svg width="17" height="16" viewBox="0 0 17 16" fill="none" xmlns="http://www.w3.org/2000/svg">
<path d="M7.7064 9.22191C7.7064 8.91791 7.7864 8.64591 7.9464 8.40591C8.1064 8.15791 8.3664 7.88191 8.7264 7.57791C9.0144 7.32991 9.2384 7.11391 9.3984 6.92991C9.5664 6.74591 9.6504 6.52991 9.6504 6.28191C9.6504 5.97791 9.5504 5.73391 9.3504 5.54991C9.1584 5.35791 8.8744 5.26191 8.4984 5.26191C8.1544 5.26191 7.8744 5.35791 7.6584 5.54991C7.4504 5.73391 7.3464 5.99791 7.3464 6.34191H5.7384C5.7384 6.01391 5.8064 5.70591 5.9424 5.41791C6.0864 5.12191 6.2784 4.86191 6.5184 4.63791C6.7664 4.41391 7.0584 4.23791 7.3944 4.10991C7.7304 3.98191 8.0984 3.91791 8.4984 3.91791C8.9304 3.91791 9.3144 3.97791 9.6504 4.09791C9.9944 4.20991 10.2864 4.36991 10.5264 4.57791C10.7664 4.78591 10.9464 5.02991 11.0664 5.30991C11.1944 5.58991 11.2584 5.89391 11.2584 6.22191C11.2584 6.43791 11.2384 6.63391 11.1984 6.80991C11.1584 6.98591 11.0904 7.15391 10.9944 7.31391C10.9064 7.47391 10.7864 7.63791 10.6344 7.80591C10.4824 7.96591 10.2984 8.14191 10.0824 8.33391C9.8984 8.49391 9.7544 8.62991 9.6504 8.74191C9.5464 8.84591 9.4664 8.94191 9.4104 9.02991C9.3624 9.10991 9.3304 9.18591 9.3144 9.25791C9.2984 9.32191 9.2904 9.38991 9.2904 9.46191V9.70191H7.7064V9.22191ZM8.4984 12.6059C8.2184 12.6059 7.9784 12.5059 7.7784 12.3059C7.5784 12.1059 7.4784 11.8659 7.4784 11.5859C7.4784 11.2899 7.5784 11.0459 7.7784 10.8539C7.9784 10.6619 8.2184 10.5659 8.4984 10.5659C8.7784 10.5659 9.0184 10.6619 9.2184 10.8539C9.4184 11.0459 9.5184 11.2899 9.5184 11.5859C9.5184 11.8659 9.4184 12.1059 9.2184 12.3059C9.0184 12.5059 8.7784 12.6059 8.4984 12.6059Z" fill="#D0C2DE"/>
<path d="M16.5 8C16.5 12.114 12.9473 15.5 8.5 15.5C4.05273 15.5 0.5 12.114 0.5 8C0.5 3.88599 4.05273 0.5 8.5 0.5C12.9473 0.5 16.5 3.88599 16.5 8Z" stroke="#D0C2DE"/>
</svg>
