<svg width="14" height="20" viewBox="0 0 14 20" fill="none" xmlns="http://www.w3.org/2000/svg">
<path d="M4 5.00048C4 4.71476 4 4.36832 4 4.0002C4 2.34334 5.34314 1 7 1V1C8.65685 1 10 2.34354 10 4.00039C10 4.42602 10 4.79018 10 5.00048M1.00001 10V5.00048H13C13 6.23242 13 13.4356 13 17.0016C13 18.1062 12.1046 19 11 19H3.00001C1.89543 19 1 18.1049 1 17.0003C1.00001 15.8216 1.00001 14.4712 1.00001 14M1.00001 10H6.00001M1.00001 10V14M1.00001 14H6.00001" stroke="#EF3D32" stroke-width="2" stroke-linecap="round" stroke-linejoin="round"/>
</svg>
