<svg width="42" height="42" viewBox="0 0 42 42" fill="none" xmlns="http://www.w3.org/2000/svg">
<path d="M37.6075 17.8321L35.8575 16.8696L20.1075 8.11965H19.915C19.8077 8.07429 19.6964 8.03913 19.5825 8.01465H19.25H18.935C18.8155 8.03915 18.6983 8.07429 18.585 8.11965H18.3925L2.64253 16.8696C2.37321 17.0223 2.14919 17.2436 1.99334 17.5111C1.83749 17.7786 1.75537 18.0826 1.75537 18.3921C1.75537 18.7017 1.83749 19.0057 1.99334 19.2732C2.14919 19.5407 2.37321 19.762 2.64253 19.9146L7.00003 22.3296V30.6246C7.00003 32.017 7.55315 33.3524 8.53772 34.337C9.52229 35.3215 10.8576 35.8746 12.25 35.8746H26.25C27.6424 35.8746 28.9778 35.3215 29.9623 34.337C30.9469 33.3524 31.5 32.017 31.5 30.6246V22.3296L35 20.3696V25.3746C35 25.8388 35.1844 26.2839 35.5126 26.6121C35.8408 26.9403 36.2859 27.1246 36.75 27.1246C37.2142 27.1246 37.6593 26.9403 37.9875 26.6121C38.3157 26.2839 38.5 25.8388 38.5 25.3746V19.3546C38.4995 19.0446 38.4166 18.7402 38.2598 18.4727C38.1029 18.2051 37.8778 17.9841 37.6075 17.8321ZM28 30.6246C28 31.0888 27.8157 31.5339 27.4875 31.8621C27.1593 32.1903 26.7142 32.3746 26.25 32.3746H12.25C11.7859 32.3746 11.3408 32.1903 11.0126 31.8621C10.6844 31.5339 10.5 31.0888 10.5 30.6246V24.2721L18.3925 28.6472L18.655 28.7521H18.8125C18.9578 28.7705 19.1048 28.7705 19.25 28.7521C19.3953 28.7705 19.5423 28.7705 19.6875 28.7521H19.845C19.9379 28.7326 20.0267 28.697 20.1075 28.6472L28 24.2721V30.6246ZM19.25 25.1296L7.10503 18.3746L19.25 11.6196L31.395 18.3746L19.25 25.1296Z" fill="black"/>
</svg>
