<svg width="44" height="43" viewBox="0 0 44 43" fill="none" xmlns="http://www.w3.org/2000/svg">
<path d="M22.55 21.8938C23.5283 21.0663 24.3129 20.0428 24.8506 18.8928C25.3884 17.7428 25.6667 16.4932 25.6667 15.2288C25.6667 12.8529 24.7009 10.5744 22.9819 8.89434C21.2628 7.21433 18.9312 6.27051 16.5 6.27051C14.0689 6.27051 11.7373 7.21433 10.0182 8.89434C8.29915 10.5744 7.33337 12.8529 7.33337 15.2288C7.33336 16.4932 7.61168 17.7428 8.14944 18.8928C8.6872 20.0428 9.47182 21.0663 10.45 21.8938C7.88363 23.0296 5.70623 24.8636 4.17817 27.1767C2.65012 29.4897 1.83607 32.1839 1.83337 34.9372C1.83337 35.4124 2.02653 35.8681 2.37034 36.2041C2.71416 36.5401 3.18048 36.7288 3.66671 36.7288C4.15294 36.7288 4.61925 36.5401 4.96307 36.2041C5.30689 35.8681 5.50004 35.4124 5.50004 34.9372C5.50004 32.0861 6.65897 29.3518 8.72187 27.3358C10.7848 25.3198 13.5827 24.1872 16.5 24.1872C19.4174 24.1872 22.2153 25.3198 24.2782 27.3358C26.3411 29.3518 27.5 32.0861 27.5 34.9372C27.5 35.4124 27.6932 35.8681 28.037 36.2041C28.3808 36.5401 28.8471 36.7288 29.3334 36.7288C29.8196 36.7288 30.2859 36.5401 30.6297 36.2041C30.9736 35.8681 31.1667 35.4124 31.1667 34.9372C31.164 32.1839 30.35 29.4897 28.8219 27.1767C27.2939 24.8636 25.1165 23.0296 22.55 21.8938ZM16.5 20.6038C15.4122 20.6038 14.3489 20.2886 13.4444 19.698C12.5399 19.1074 11.835 18.2679 11.4187 17.2858C11.0024 16.3036 10.8935 15.2229 11.1057 14.1802C11.3179 13.1376 11.8418 12.1799 12.611 11.4281C13.3801 10.6764 14.3601 10.1645 15.427 9.95712C16.4939 9.74973 17.5998 9.85617 18.6048 10.263C19.6098 10.6698 20.4688 11.3587 21.0731 12.2427C21.6775 13.1266 22 14.1658 22 15.2288C22 16.6544 21.4206 18.0215 20.3891 19.0295C19.3577 20.0375 17.9587 20.6038 16.5 20.6038ZM34.3567 21.1772C35.53 19.886 36.2964 18.2909 36.5637 16.584C36.831 14.877 36.5877 13.1309 35.8633 11.5559C35.1388 9.98092 33.964 8.6441 32.4802 7.70639C30.9965 6.76868 29.267 6.27005 27.5 6.27051C27.0138 6.27051 26.5475 6.45927 26.2037 6.79528C25.8599 7.13128 25.6667 7.587 25.6667 8.06218C25.6667 8.53735 25.8599 8.99307 26.2037 9.32907C26.5475 9.66508 27.0138 9.85384 27.5 9.85384C28.9587 9.85384 30.3577 10.4201 31.3891 11.4281C32.4206 12.4362 33 13.8033 33 15.2288C32.9974 16.1699 32.7421 17.0938 32.2595 17.9081C31.7769 18.7225 31.084 19.3987 30.25 19.8693C29.9782 20.0225 29.7512 20.2413 29.5907 20.5048C29.4302 20.7683 29.3416 21.0677 29.3334 21.3743C29.3257 21.6784 29.3974 21.9795 29.5418 22.2491C29.6861 22.5186 29.8983 22.7478 30.1584 22.9151L30.8734 23.3809L31.1117 23.5063C33.3216 24.5307 35.1859 26.1508 36.4852 28.176C37.7844 30.2012 38.4644 32.547 38.445 34.9372C38.445 35.4124 38.6382 35.8681 38.982 36.2041C39.3258 36.5401 39.7921 36.7288 40.2784 36.7288C40.7646 36.7288 41.2309 36.5401 41.5747 36.2041C41.9186 35.8681 42.1117 35.4124 42.1117 34.9372C42.1267 32.1877 41.4221 29.4802 40.0647 27.0719C38.7074 24.6635 36.7425 22.6344 34.3567 21.1772Z" fill="black"/>
</svg>
