<svg width="38" height="28" viewBox="0 0 38 28" fill="none" xmlns="http://www.w3.org/2000/svg">
<path d="M36.6075 9.83215L34.8575 8.86965L19.1075 0.119648H18.915C18.8077 0.0742862 18.6964 0.039131 18.5825 0.0146484H18.25H17.935C17.8155 0.0391471 17.6983 0.0742869 17.585 0.119648H17.3925L1.64253 8.86965C1.37321 9.02228 1.14919 9.24362 0.993341 9.51109C0.837487 9.77856 0.755371 10.0826 0.755371 10.3921C0.755371 10.7017 0.837487 11.0057 0.993341 11.2732C1.14919 11.5407 1.37321 11.762 1.64253 11.9146L6.00003 14.3296V22.6246C6.00003 24.017 6.55315 25.3524 7.53772 26.337C8.52229 27.3215 9.85764 27.8746 11.25 27.8746H25.25C26.6424 27.8746 27.9778 27.3215 28.9623 26.337C29.9469 25.3524 30.5 24.017 30.5 22.6246V14.3296L34 12.3696V17.3746C34 17.8388 34.1844 18.2839 34.5126 18.6121C34.8408 18.9403 35.2859 19.1246 35.75 19.1246C36.2142 19.1246 36.6593 18.9403 36.9875 18.6121C37.3157 18.2839 37.5 17.8388 37.5 17.3746V11.3546C37.4995 11.0446 37.4166 10.7402 37.2598 10.4727C37.1029 10.2051 36.8778 9.98409 36.6075 9.83215ZM27 22.6246C27 23.0888 26.8157 23.5339 26.4875 23.8621C26.1593 24.1903 25.7142 24.3746 25.25 24.3746H11.25C10.7859 24.3746 10.3408 24.1903 10.0126 23.8621C9.68441 23.5339 9.50003 23.0888 9.50003 22.6246V16.2721L17.3925 20.6472L17.655 20.7521H17.8125C17.9578 20.7705 18.1048 20.7705 18.25 20.7521C18.3953 20.7705 18.5423 20.7705 18.6875 20.7521H18.845C18.9379 20.7326 19.0267 20.697 19.1075 20.6472L27 16.2721V22.6246ZM18.25 17.1296L6.10503 10.3746L18.25 3.61965L30.395 10.3746L18.25 17.1296Z" fill="black"/>
</svg>
