<svg width="42" height="31" viewBox="0 0 42 31" fill="none" xmlns="http://www.w3.org/2000/svg">
<path d="M21.55 15.8938C22.5283 15.0663 23.3129 14.0428 23.8506 12.8928C24.3884 11.7428 24.6667 10.4932 24.6667 9.22884C24.6667 6.85294 23.7009 4.57436 21.9819 2.89434C20.2628 1.21433 17.9312 0.270508 15.5 0.270508C13.0689 0.270508 10.7373 1.21433 9.01823 2.89434C7.29915 4.57436 6.33337 6.85294 6.33337 9.22884C6.33336 10.4932 6.61168 11.7428 7.14944 12.8928C7.6872 14.0428 8.47182 15.0663 9.45004 15.8938C6.88363 17.0296 4.70623 18.8636 3.17817 21.1767C1.65012 23.4897 0.836072 26.1839 0.833374 28.9372C0.833374 29.4124 1.02653 29.8681 1.37034 30.2041C1.71416 30.5401 2.18048 30.7288 2.66671 30.7288C3.15294 30.7288 3.61925 30.5401 3.96307 30.2041C4.30689 29.8681 4.50004 29.4124 4.50004 28.9372C4.50004 26.0861 5.65897 23.3518 7.72187 21.3358C9.78477 19.3198 12.5827 18.1872 15.5 18.1872C18.4174 18.1872 21.2153 19.3198 23.2782 21.3358C25.3411 23.3518 26.5 26.0861 26.5 28.9372C26.5 29.4124 26.6932 29.8681 27.037 30.2041C27.3808 30.5401 27.8471 30.7288 28.3334 30.7288C28.8196 30.7288 29.2859 30.5401 29.6297 30.2041C29.9736 29.8681 30.1667 29.4124 30.1667 28.9372C30.164 26.1839 29.35 23.4897 27.8219 21.1767C26.2939 18.8636 24.1165 17.0296 21.55 15.8938ZM15.5 14.6038C14.4122 14.6038 13.3489 14.2886 12.4444 13.698C11.5399 13.1074 10.835 12.2679 10.4187 11.2858C10.0024 10.3036 9.8935 9.22288 10.1057 8.18023C10.3179 7.13758 10.8418 6.17985 11.611 5.42814C12.3801 4.67644 13.3601 4.16452 14.427 3.95712C15.4939 3.74973 16.5998 3.85617 17.6048 4.26299C18.6098 4.66981 19.4688 5.35874 20.0731 6.24265C20.6775 7.12657 21 8.16577 21 9.22884C21 10.6544 20.4206 12.0215 19.3891 13.0295C18.3577 14.0375 16.9587 14.6038 15.5 14.6038ZM33.3567 15.1772C34.53 13.886 35.2964 12.2909 35.5637 10.584C35.831 8.877 35.5877 7.13093 34.8633 5.55593C34.1388 3.98092 32.964 2.6441 31.4802 1.70639C29.9965 0.768681 28.267 0.270046 26.5 0.270508C26.0138 0.270508 25.5475 0.459272 25.2037 0.795275C24.8599 1.13128 24.6667 1.587 24.6667 2.06218C24.6667 2.53735 24.8599 2.99307 25.2037 3.32907C25.5475 3.66508 26.0138 3.85384 26.5 3.85384C27.9587 3.85384 29.3577 4.42014 30.3891 5.42814C31.4206 6.43615 32 7.8033 32 9.22884C31.9974 10.1699 31.7421 11.0938 31.2595 11.9081C30.7769 12.7225 30.084 13.3987 29.25 13.8693C28.9782 14.0225 28.7512 14.2413 28.5907 14.5048C28.4302 14.7683 28.3416 15.0677 28.3334 15.3743C28.3257 15.6784 28.3974 15.9795 28.5418 16.2491C28.6861 16.5186 28.8983 16.7478 29.1584 16.9151L29.8734 17.3809L30.1117 17.5063C32.3216 18.5307 34.1859 20.1508 35.4852 22.176C36.7844 24.2012 37.4644 26.547 37.445 28.9372C37.445 29.4124 37.6382 29.8681 37.982 30.2041C38.3258 30.5401 38.7921 30.7288 39.2784 30.7288C39.7646 30.7288 40.2309 30.5401 40.5747 30.2041C40.9186 29.8681 41.1117 29.4124 41.1117 28.9372C41.1267 26.1877 40.4221 23.4802 39.0647 21.0719C37.7074 18.6635 35.7425 16.6344 33.3567 15.1772Z" fill="black"/>
</svg>
