<svg width="36" height="32" viewBox="0 0 36 32" fill="none" xmlns="http://www.w3.org/2000/svg">
<path d="M24.4925 17.1244C26.2082 15.9031 27.4605 14.2284 28.0752 12.3331C28.6898 10.4379 28.6364 8.41649 27.9221 6.55006C27.2079 4.68363 25.8684 3.06503 24.0901 1.91943C22.3118 0.773827 20.183 0.158203 18 0.158203C15.817 0.158203 13.6882 0.773827 11.9099 1.91943C10.1315 3.06503 8.7921 4.68363 8.07787 6.55006C7.36364 8.41649 7.31014 10.4379 7.92483 12.3331C8.53951 14.2284 9.79181 15.9031 11.5075 17.1244C8.56763 18.1901 6.0025 19.9575 4.08556 22.2384C2.16862 24.5193 0.971729 27.2281 0.622494 30.0761C0.597215 30.284 0.617448 30.4944 0.682039 30.6952C0.746629 30.8961 0.854312 31.0835 0.998939 31.2467C1.29103 31.5763 1.71587 31.7874 2.17999 31.8336C2.64412 31.8798 3.10952 31.7572 3.47381 31.493C3.8381 31.2287 4.07144 30.8443 4.12249 30.4244C4.50677 27.3293 6.13795 24.4708 8.70438 22.395C11.2708 20.3192 14.5926 19.1717 18.035 19.1717C21.4774 19.1717 24.7992 20.3192 27.3656 22.395C29.932 24.4708 31.5632 27.3293 31.9475 30.4244C31.9951 30.8135 32.2003 31.1728 32.5234 31.433C32.8466 31.6932 33.2649 31.8359 33.6975 31.8336H33.89C34.3487 31.7858 34.768 31.576 35.0565 31.2497C35.3449 30.9235 35.4792 30.5073 35.43 30.0919C35.0791 27.2359 33.8758 24.5201 31.949 22.2357C30.0222 19.9513 27.4446 18.1844 24.4925 17.1244V17.1244ZM18 16.0002C16.6155 16.0002 15.2621 15.6288 14.111 14.9329C12.9599 14.237 12.0627 13.2478 11.5328 12.0906C11.003 10.9333 10.8644 9.65988 11.1345 8.43133C11.4046 7.20279 12.0713 6.07429 13.0502 5.18856C14.0292 4.30283 15.2765 3.69964 16.6344 3.45526C17.9922 3.21089 19.3997 3.33631 20.6788 3.81567C21.9579 4.29502 23.0511 5.10678 23.8203 6.14829C24.5895 7.1898 25 8.41429 25 9.66691C25 11.3466 24.2625 12.9575 22.9497 14.1452C21.637 15.333 19.8565 16.0002 18 16.0002Z" fill="black"/>
</svg>
