<svg width="81" height="18" viewBox="0 0 81 18" fill="none" xmlns="http://www.w3.org/2000/svg">
<path d="M11.832 14.7361V17.6401H0V0.600117H11.616V3.50412H3.312V7.60812H10.488V10.2961H3.312V14.7361H11.832Z" fill="#392B4B"/>
<path d="M13.0997 11.3521C13.0997 10.1361 13.3397 9.04012 13.8197 8.06412C14.2997 7.07212 14.9637 6.28812 15.8117 5.71212C16.6597 5.13612 17.6277 4.84812 18.7157 4.84812C19.6437 4.84812 20.4757 5.08012 21.2117 5.54412C21.9637 5.99212 22.5477 6.56812 22.9637 7.27212V0.120117H26.1797V14.0401C26.1797 14.3761 26.2357 14.6161 26.3477 14.7601C26.4597 14.9041 26.6517 14.9921 26.9237 15.0241V17.6401C26.3637 17.7521 25.9077 17.8081 25.5557 17.8081C24.9797 17.8081 24.4997 17.6641 24.1157 17.3761C23.7477 17.0881 23.5397 16.7121 23.4917 16.2481L23.4437 15.4561C22.9797 16.2401 22.3477 16.8401 21.5477 17.2561C20.7637 17.6721 19.9397 17.8801 19.0757 17.8801C18.2117 17.8801 17.4117 17.7121 16.6757 17.3761C15.9557 17.0401 15.3237 16.5761 14.7797 15.9841C14.2517 15.3921 13.8357 14.7041 13.5317 13.9201C13.2437 13.1201 13.0997 12.2641 13.0997 11.3521ZM22.9637 13.0321V10.0321C22.8037 9.56812 22.5477 9.15212 22.1957 8.78412C21.8437 8.41612 21.4517 8.12812 21.0197 7.92012C20.5877 7.69612 20.1557 7.58412 19.7237 7.58412C19.2277 7.58412 18.7797 7.68812 18.3797 7.89612C17.9797 8.10412 17.6277 8.38412 17.3237 8.73612C17.0357 9.08812 16.8117 9.49612 16.6517 9.96012C16.5077 10.4241 16.4357 10.9121 16.4357 11.4241C16.4357 11.9361 16.5157 12.4241 16.6757 12.8881C16.8517 13.3361 17.0997 13.7281 17.4197 14.0641C17.7397 14.4001 18.1077 14.6641 18.5237 14.8561C18.9557 15.0481 19.4197 15.1441 19.9157 15.1441C20.2197 15.1441 20.5237 15.0961 20.8277 15.0001C21.1477 14.8881 21.4437 14.7441 21.7157 14.5681C22.0037 14.3761 22.2517 14.1521 22.4597 13.8961C22.6837 13.6241 22.8517 13.3361 22.9637 13.0321Z" fill="#392B4B"/>
<path d="M44.8896 5.06412H47.9376L42.6816 17.6401H39.9936L37.8816 12.2401L35.8176 17.6401H33.1056L27.8736 5.06412H30.8976L34.6416 14.5681L36.1056 10.4641L33.9216 5.08812H36.5856L37.8816 8.92812L39.2016 5.08812H41.8656L39.6816 10.4641L41.1696 14.5681L44.8896 5.06412Z" fill="#392B4B"/>
<path d="M49.4224 17.6401V5.06412H52.6384V17.6401H49.4224ZM49.4224 3.31212V0.120117H52.6384V3.31212H49.4224Z" fill="#392B4B"/>
<path d="M61.3956 17.8801C60.3716 17.8801 59.4516 17.7121 58.6356 17.3761C57.8196 17.0241 57.1236 16.5441 56.5476 15.9361C55.9716 15.3121 55.5236 14.6081 55.2036 13.8241C54.8996 13.0401 54.7476 12.2161 54.7476 11.3521C54.7476 10.1681 55.0116 9.08812 55.5396 8.11212C56.0836 7.12012 56.8516 6.32812 57.8436 5.73612C58.8356 5.14412 60.0116 4.84812 61.3716 4.84812C62.7316 4.84812 63.8996 5.14412 64.8756 5.73612C65.8516 6.32812 66.5796 7.10412 67.0596 8.06412L63.9156 9.02412C63.6436 8.56012 63.2836 8.20812 62.8356 7.96812C62.3876 7.71212 61.8916 7.58412 61.3476 7.58412C60.7396 7.58412 60.1796 7.74412 59.6676 8.06412C59.1716 8.36812 58.7796 8.80812 58.4916 9.38412C58.2036 9.94412 58.0596 10.6001 58.0596 11.3521C58.0596 12.0881 58.2036 12.7441 58.4916 13.3201C58.7956 13.8801 59.1956 14.3281 59.6916 14.6641C60.1876 14.9841 60.7396 15.1441 61.3476 15.1441C61.7316 15.1441 62.0916 15.0801 62.4276 14.9521C62.7796 14.8241 63.0916 14.6481 63.3636 14.4241C63.6356 14.2001 63.8356 13.9441 63.9636 13.6561L67.1076 14.6161C66.8196 15.2401 66.3956 15.8001 65.8356 16.2961C65.2916 16.7921 64.6436 17.1841 63.8916 17.4721C63.1556 17.7441 62.3236 17.8801 61.3956 17.8801Z" fill="#392B4B"/>
<path d="M68.2224 13.9201C68.2224 13.1041 68.4464 12.3921 68.8944 11.7841C69.3584 11.1601 69.9984 10.6801 70.8144 10.3441C71.6304 10.0081 72.5664 9.84012 73.6224 9.84012C74.1504 9.84012 74.6864 9.88012 75.2304 9.96012C75.7744 10.0401 76.2464 10.1681 76.6464 10.3441V9.67212C76.6464 8.87212 76.4064 8.25612 75.9264 7.82412C75.4624 7.39212 74.7664 7.17612 73.8384 7.17612C73.1504 7.17612 72.4944 7.29612 71.8704 7.53612C71.2464 7.77612 70.5904 8.12812 69.9024 8.59212L68.8704 6.48012C69.7024 5.93612 70.5504 5.52812 71.4144 5.25612C72.2944 4.98412 73.2144 4.84812 74.1744 4.84812C75.9664 4.84812 77.3584 5.29612 78.3504 6.19212C79.3584 7.08812 79.8624 8.36812 79.8624 10.0321V14.0401C79.8624 14.3761 79.9184 14.6161 80.0304 14.7601C80.1584 14.9041 80.3584 14.9921 80.6304 15.0241V17.6401C80.3424 17.6881 80.0784 17.7281 79.8384 17.7601C79.6144 17.7921 79.4224 17.8081 79.2624 17.8081C78.6224 17.8081 78.1344 17.6641 77.7984 17.3761C77.4784 17.0881 77.2784 16.7361 77.1984 16.3201L77.1264 15.6721C76.5824 16.3761 75.9024 16.9201 75.0864 17.3041C74.2704 17.6881 73.4384 17.8801 72.5904 17.8801C71.7584 17.8801 71.0064 17.7121 70.3344 17.3761C69.6784 17.0241 69.1584 16.5521 68.7744 15.9601C68.4064 15.3521 68.2224 14.6721 68.2224 13.9201ZM76.0464 14.5681C76.2224 14.3761 76.3664 14.1841 76.4784 13.9921C76.5904 13.8001 76.6464 13.6241 76.6464 13.4641V12.1921C76.2624 12.0321 75.8464 11.9121 75.3984 11.8321C74.9504 11.7361 74.5264 11.6881 74.1264 11.6881C73.2944 11.6881 72.6064 11.8721 72.0624 12.2401C71.5344 12.5921 71.2704 13.0641 71.2704 13.6561C71.2704 13.9761 71.3584 14.2801 71.5344 14.5681C71.7104 14.8561 71.9664 15.0881 72.3024 15.2641C72.6384 15.4401 73.0384 15.5281 73.5024 15.5281C73.9824 15.5281 74.4544 15.4401 74.9184 15.2641C75.3824 15.0721 75.7584 14.8401 76.0464 14.5681Z" fill="#392B4B"/>
</svg>
