<svg width="40" height="40" viewBox="0 0 40 40" fill="none" xmlns="http://www.w3.org/2000/svg">
<path d="M13.4544 38.8992C15.5053 39.6125 17.7076 40 20 40C31.0457 40 40 31.0042 40 19.9074C40 11.4406 34.7873 4.19698 27.4101 1.23894C28.8411 4.66156 28.1648 8.55258 25.5363 12.1877C21.5652 17.6798 15.5069 21.1888 9.84283 23.3303C6.72731 24.5082 3.62474 25.3127 0.87566 25.8058C2.4569 30.9865 4.91533 34.0034 10.525 33.3828C14.2429 32.9715 18.5708 30.9941 23.0074 26.4163L20.5682 24.4739L32.0455 19.636L29.8864 31.8944L27.6587 30.1204C23.0802 34.9827 18.2254 37.8197 13.4544 38.8992Z" fill="#966CEE"/>
<path d="M16.7578 0.0773877C7.25394 1.6338 0 9.91953 0 19.9074C0 19.9157 5.00087e-06 19.9239 1.49997e-05 19.9322C2.34097 19.5028 5.03314 18.8058 7.76152 17.7743C12.8569 15.8478 17.7266 12.8876 20.7555 8.69874C23.0966 5.46098 21.8951 -0.763886 16.7578 0.0773877Z" fill="#966CEE"/>
</svg>
